<svg width="15" height="15" viewBox="0 0 15 15" fill="none" xmlns="http://www.w3.org/2000/svg">
<path d="M7.27262 14.2201C10.9484 14.2201 13.9393 11.1302 13.9393 7.33202C13.9393 6.67645 13.8507 6.03042 13.6753 5.41171C13.5889 5.10747 13.2815 4.93272 12.9862 5.02199C12.6915 5.11097 12.5229 5.42979 12.609 5.73403C12.7543 6.24805 12.8282 6.7859 12.8282 7.33202C12.8282 10.497 10.3359 13.0721 7.27262 13.0721C4.20934 13.0721 1.71707 10.497 1.71707 7.33202C1.71707 4.16701 4.20934 1.59198 7.27262 1.59198C8.3859 1.59198 9.457 1.92831 10.3701 2.56439C10.6243 2.74167 10.9699 2.67202 11.1412 2.4094C11.3126 2.1465 11.2457 1.78971 10.9913 1.61258C9.89402 0.848127 8.60821 0.44397 7.27262 0.44397C3.59682 0.44397 0.605957 3.53386 0.605957 7.33202C0.605957 11.1302 3.59682 14.2201 7.27262 14.2201Z" fill="#282C4B"/>
<path d="M13.5107 1.25349L7.27251 7.6985L5.27677 5.6368C5.04003 5.39234 4.65651 5.39234 4.41977 5.6368C4.18317 5.8814 4.18317 6.27766 4.41977 6.52226L6.84401 9.02701C6.96253 9.14946 7.1173 9.21046 7.27251 9.21046C7.42773 9.21046 7.5825 9.14946 7.70102 9.02701L14.3677 2.13896C14.6043 1.89436 14.6043 1.4981 14.3677 1.25349C14.1309 1.00904 13.7474 1.00904 13.5107 1.25349Z" fill="#282C4B"/>
</svg>
