<svg width="28" height="29" viewBox="0 0 28 29" fill="none" xmlns="http://www.w3.org/2000/svg">
<g clip-path="url(#clip0_164_1812)">
<path d="M21.4312 5.77954C20.5233 5.77954 19.7969 6.51382 19.7969 7.4139C19.7969 8.31398 20.5312 9.04826 21.4312 9.04826C22.3313 9.04826 23.0656 8.31398 23.0656 7.4139C23.0656 6.51382 22.3313 5.77954 21.4312 5.77954Z" fill="#FDFDFD"/>
<path d="M14.1513 7.87964C10.3615 7.87964 7.27441 10.9668 7.27441 14.7566C7.27441 18.5464 10.3615 21.6335 14.1513 21.6335C17.9412 21.6335 21.0283 18.5464 21.0283 14.7566C21.0283 10.9668 17.9412 7.87964 14.1513 7.87964ZM14.1513 19.1622C11.7196 19.1622 9.74569 17.1884 9.74569 14.7566C9.74569 12.3248 11.7196 10.3509 14.1513 10.3509C16.5831 10.3509 18.557 12.3248 18.557 14.7566C18.557 17.1884 16.5831 19.1622 14.1513 19.1622Z" fill="#FDFDFD"/>
<path d="M19.6072 28.7239H8.45878C3.83205 28.7239 0.065918 24.9578 0.065918 20.331V9.18266C0.065918 4.55592 3.83205 0.789795 8.45878 0.789795H19.615C24.2418 0.789795 28.0079 4.55592 28.0079 9.18266V20.3389C28.0079 24.9657 24.2418 28.7318 19.615 28.7318L19.6072 28.7239ZM8.45878 3.41898C5.28481 3.41898 2.6951 6.00079 2.6951 9.18266V20.3389C2.6951 23.5129 5.27691 26.1026 8.45878 26.1026H19.615C22.789 26.1026 25.3787 23.5208 25.3787 20.3389V9.18266C25.3787 6.00869 22.7969 3.41898 19.615 3.41898H8.45878Z" fill="#FDFDFD"/>
</g>
<defs>
<clipPath id="clip0_164_1812">
<rect width="27.9341" height="27.9341" fill="white" transform="translate(0.065918 0.789795)"/>
</clipPath>
</defs>
</svg>
