<svg width="44" height="44" viewBox="0 0 44 44" fill="none" xmlns="http://www.w3.org/2000/svg">
<circle cx="22.0001" cy="22" r="19.9828" fill="white" stroke="#C8C8C8"/>
<path d="M27.1174 22.1504C27.1861 21.7001 27.5472 21.3285 28.0027 21.3285C28.4583 21.3285 28.8336 21.6993 28.7775 22.1513C28.6141 23.4674 28.0504 24.6464 27.0863 25.6882C26.3066 26.5323 25.4107 27.1436 24.3984 27.5219C23.5984 27.8209 22.9622 28.5224 22.9622 29.3765V30.1411C22.9622 30.6726 22.5314 31.1034 21.9999 31.1034C21.4685 31.1034 21.0377 30.6726 21.0377 30.1411V29.3765C21.0377 28.5224 20.4019 27.8202 19.601 27.5234C18.5807 27.1452 17.6696 26.5334 16.8678 25.6882C15.9291 24.6464 15.3802 23.4675 15.2211 22.1514C15.1664 21.6992 15.5416 21.3285 15.9972 21.3285C16.4527 21.3285 16.814 21.6999 16.8808 22.1505C17.0404 23.2274 17.5248 24.1466 18.3341 24.908C19.3728 25.8259 20.5947 26.2848 21.9999 26.2848C23.4052 26.2848 24.6118 25.8259 25.6199 24.908C26.4538 24.1466 26.953 23.2273 27.1174 22.1504ZM20.8086 15.3625V21.4202C20.8086 21.7262 20.9155 22.0015 21.1293 22.2463C21.3737 22.4605 21.6639 22.5675 21.9999 22.5675C22.3054 22.5675 22.5651 22.4605 22.7789 22.2463C23.0233 22.0321 23.1455 21.7568 23.1455 21.4202L23.1913 15.3625C23.1913 15.026 23.0691 14.7506 22.8248 14.5365C22.5804 14.2917 22.3054 14.1693 21.9999 14.1693C21.6945 14.1693 21.4195 14.2917 21.1751 14.5365C20.9308 14.7506 20.8086 15.026 20.8086 15.3625ZM24.062 23.3936C23.4816 23.9749 22.7942 24.2655 21.9999 24.2655C21.2057 24.2655 20.5183 23.9749 19.9379 23.3936C19.3575 22.8123 19.0673 22.1239 19.0673 21.3285V15.4543C19.0673 14.6588 19.3575 13.9705 19.9379 13.3892C20.5183 12.8079 21.2057 12.5172 21.9999 12.5172C22.7942 12.5172 23.4816 12.8079 24.062 13.3892C24.6424 13.9705 24.9326 14.6588 24.9326 15.4543V21.3285C24.9326 22.1239 24.6424 22.8123 24.062 23.3936Z" fill="#444444"/>
</svg>
