<svg width="75" height="81" viewBox="0 0 75 81" fill="none" xmlns="http://www.w3.org/2000/svg">
<path d="M74.0118 5.38433H74.0071V1.61998C74.0071 0.724777 73.2829 0 72.3884 0H70.096H43.2503H41.6316L17.3515 24.2997V26.5911V27.5397V29.2037H17.3646C17.4329 30.0352 18.1216 30.6907 18.9703 30.6907H25.0428C25.8915 30.6907 26.5792 30.0352 26.6485 29.2037H26.6681V27.5397H43.2512C44.1457 27.5397 44.87 26.8149 44.87 25.9197V9.32379H64.6952V71.6762H26.6672V68.8558H26.6606C26.6597 67.9624 25.9355 67.2376 25.0419 67.2376H18.9693C18.0757 67.2376 17.3515 67.9615 17.3506 68.8558V77.0886V79.38C17.3506 80.2752 18.0748 81 18.9693 81H20.4496H70.9063H72.3865C73.2811 81 74.0053 80.2752 74.0053 79.38V77.0877H74.01L74.0118 5.38433Z" fill="#444444"/>
<path d="M36.8587 48.9647C36.8587 40.6803 30.1508 33.9625 21.869 33.9625C13.5873 33.9625 6.8794 40.6803 6.8794 48.9647C6.8794 51.7645 7.65976 54.3771 8.99404 56.6198L1.68168 63.9378L1.71068 63.9668C0.93313 64.7113 0.453125 65.7638 0.453125 66.9577C0.453125 69.2641 2.28894 71.0685 4.59165 71.0685C5.76781 71.0685 6.81764 70.5947 7.56806 69.8287L7.58865 69.8493L15.0966 62.3356C17.1326 63.3703 19.4288 63.9659 21.869 63.9659C30.1508 63.9649 36.8587 57.2491 36.8587 48.9647ZM13.1691 48.9637C13.1691 44.1553 17.0634 40.257 21.87 40.257C26.6766 40.257 30.57 44.1553 30.57 48.9637C30.57 53.7731 26.6766 57.6714 21.87 57.6714C17.0624 57.6714 13.1691 53.7731 13.1691 48.9637Z" fill="#444444"/>
</svg>
