<svg width="34" height="29" viewBox="0 0 34 29" fill="none" xmlns="http://www.w3.org/2000/svg">
<g clip-path="url(#clip0_164_1810)">
<path d="M33.8007 4.13729C32.727 4.6268 31.5347 4.91894 30.3662 5.11632C30.9189 5.02158 31.7321 4.02675 32.0558 3.61619C32.5533 3.00034 32.9638 2.29765 33.1928 1.53969C33.2244 1.48442 33.2481 1.40546 33.1928 1.35809C33.1217 1.32651 33.0665 1.3423 33.0112 1.37388C31.7163 2.06868 30.3741 2.57399 28.945 2.92928C28.8266 2.96087 28.7398 2.92928 28.6608 2.85822C28.5424 2.724 28.4318 2.59767 28.3055 2.49503C27.7055 1.98183 27.058 1.58706 26.3316 1.28703C25.3763 0.900154 24.3341 0.734349 23.3077 0.797513C22.305 0.860677 21.3259 1.14491 20.4416 1.61074C19.5495 2.07658 18.7599 2.724 18.1283 3.49776C17.473 4.30309 16.9913 5.25844 16.7466 6.26906C16.5097 7.2402 16.5255 8.20344 16.6755 9.19037C16.6992 9.35618 16.6755 9.37197 16.5334 9.35618C10.9355 8.52716 6.3088 6.52961 2.54267 2.24238C2.37686 2.05289 2.29001 2.05289 2.15579 2.25817C0.513538 4.72155 1.31098 8.68507 3.36379 10.6352C3.64014 10.8958 3.91648 11.1563 4.2244 11.3932C4.11386 11.4169 2.74795 11.2669 1.52416 10.6352C1.35835 10.5326 1.2794 10.5879 1.26361 10.7774C1.24781 11.0458 1.26361 11.2906 1.31098 11.5748C1.6268 14.0777 3.3559 16.391 5.73243 17.2911C6.01666 17.4095 6.32459 17.5122 6.63251 17.5674C6.09562 17.6859 5.53504 17.7727 3.98753 17.6464C3.79804 17.6069 3.71909 17.7096 3.79804 17.8912C4.95867 21.0651 7.47732 22.0126 9.35644 22.5495C9.60909 22.5968 9.86175 22.5968 10.1144 22.6521C10.0986 22.6758 10.0828 22.6758 10.067 22.6995C9.44329 23.6548 7.27994 24.3575 6.26932 24.7128C4.43758 25.3524 2.44003 25.6445 0.505643 25.455C0.19772 25.4076 0.126661 25.4155 0.0477067 25.455C-0.0391432 25.5103 0.0398113 25.5813 0.134557 25.6603C0.529329 25.9208 0.924101 26.1498 1.33466 26.3709C2.56635 27.0262 3.84542 27.5394 5.18764 27.9105C12.1198 29.8212 19.9205 28.4158 25.1236 23.2522C29.2056 19.1939 30.6426 13.596 30.6426 7.99027C30.6426 7.76919 30.9031 7.65076 31.0531 7.53233C32.119 6.73489 32.9717 5.77954 33.7692 4.71365C33.9508 4.47679 33.9508 4.26361 33.9508 4.17676V4.14518C33.9508 4.05833 33.9508 4.08202 33.8086 4.14518L33.8007 4.13729Z" fill="#FDFDFD"/>
</g>
<defs>
<clipPath id="clip0_164_1810">
<rect width="33.9425" height="27.9341" fill="white" transform="translate(0 0.789795)"/>
</clipPath>
</defs>
</svg>
