<svg width="29" height="28" viewBox="0 0 29 28" fill="none" xmlns="http://www.w3.org/2000/svg">
<path d="M0.745605 27.9341L2.75105 20.465C1.6141 18.4201 1.02195 16.1304 1.02195 13.8013C1.02195 6.19004 7.21198 0 14.8232 0C22.4344 0 28.6244 6.19004 28.6244 13.8013C28.6244 21.4125 22.4344 27.6025 14.8232 27.6025C12.5414 27.6025 10.2833 27.0261 8.26207 25.9286L0.753501 27.942L0.745605 27.9341ZM8.63316 23.1179L9.10688 23.4021C10.8439 24.4364 12.8177 24.9812 14.8153 24.9812C20.9816 24.9812 26.0031 19.9597 26.0031 13.7933C26.0031 7.627 20.9816 2.60549 14.8153 2.60549C8.64895 2.60549 3.62744 7.627 3.62744 13.7933C3.62744 15.8304 4.19592 17.8358 5.2618 19.5965L5.55393 20.0702L4.43278 24.239L8.62526 23.1179H8.63316Z" fill="#FDFDFD"/>
<path fill-rule="evenodd" clip-rule="evenodd" d="M19.9474 15.7199C19.379 15.3804 18.6368 15.0015 17.9736 15.2778C17.4604 15.491 17.1288 16.2884 16.7972 16.699C16.6235 16.9121 16.4261 16.9437 16.1576 16.8332C14.2311 16.0673 12.7547 14.7804 11.6888 13.0039C11.5072 12.7276 11.5388 12.5144 11.7599 12.2538C12.0836 11.8748 12.4862 11.4485 12.5731 10.9353C12.6599 10.4221 12.4231 9.82993 12.2099 9.37989C11.9415 8.80352 11.6414 7.97449 11.0572 7.64288C10.5203 7.34286 9.81759 7.50867 9.34386 7.89554C8.52274 8.56666 8.12796 9.60885 8.13586 10.651C8.13586 10.9432 8.17534 11.2432 8.24639 11.5275C8.4122 12.2144 8.72802 12.8539 9.08331 13.4618C9.35176 13.9198 9.64389 14.3619 9.95971 14.7962C10.994 16.1937 12.2731 17.4096 13.7574 18.3254C14.4996 18.7834 15.297 19.1781 16.1261 19.4545C17.0498 19.7624 17.8788 20.0782 18.8816 19.8887C19.9317 19.6913 20.966 19.0439 21.3844 18.0333C21.5107 17.7333 21.566 17.4016 21.5029 17.0858C21.3607 16.4305 20.4764 16.0437 19.9474 15.7278V15.7199Z" fill="#FDFDFD"/>
</svg>
