<svg width="71" height="83" viewBox="0 0 71 83" fill="none" xmlns="http://www.w3.org/2000/svg">
<path d="M70.6374 10.9324H70.6309C70.5992 9.97832 69.8303 9.21529 68.8726 9.19783V9.19455H65.2076L65.2065 75.1316L65.2076 75.1425C65.2076 76.125 64.4212 76.9186 63.4439 76.9371V76.9426L7.91769 76.9404C7.02763 76.9404 6.29464 76.2909 6.15175 75.4394V71.5075H57.8592V71.5042C57.8712 71.5042 57.8821 71.5075 57.893 71.5075C58.8856 71.5075 59.6884 70.7052 59.6884 69.7107C59.6884 69.7042 59.6862 69.6976 59.6862 69.6976L59.6884 1.79787C59.6884 0.80451 58.8856 4.41346e-07 57.893 0.00109204C57.8821 0.00109204 57.8712 0.00436609 57.8603 0.00436609V0H51.5819V14.2148V31.9981V38.1536C51.5819 38.6274 51.1968 39.0105 50.7234 39.0105C50.4747 39.0105 50.2555 38.9003 50.0984 38.7322L43.9171 32.5461H43.8964C43.7589 32.3878 43.5626 32.283 43.3368 32.283C43.111 32.283 42.9147 32.3878 42.7773 32.5461H42.7565L36.5294 38.778H36.5196C36.3669 38.9199 36.1651 39.0116 35.9393 39.0116C35.4659 39.0116 35.082 38.6274 35.082 38.1547V31.9992V14.2159V0.00109204H2.4868C1.4942 0.00109204 0.691406 0.80451 0.691406 1.79787C0.691406 1.82079 0.697951 1.84371 0.697951 1.86664V66.5298V80.5099C0.696861 80.5318 0.691406 80.5525 0.691406 80.5743C0.691406 80.5962 0.696861 80.6169 0.697951 80.6387V80.7217H0.706677C0.78303 81.6441 1.54547 82.3711 2.4868 82.3711L68.841 82.3744H68.8726V82.3711C69.8499 82.3536 70.6363 81.56 70.6363 80.5776L70.6352 80.5667L70.6374 10.9324Z" fill="#444444"/>
</svg>
